<svg width="31" height="31" viewBox="0 0 31 31" fill="none" xmlns="http://www.w3.org/2000/svg">
<path fill-rule="evenodd" clip-rule="evenodd" d="M15.4142 1.1123C7.42681 1.1123 0.949829 7.64132 0.949829 15.6956C0.949829 22.1389 5.09432 27.6053 10.8415 29.5337C11.5644 29.6687 11.8298 29.2173 11.8298 28.8321C11.8298 28.4844 11.8163 27.3356 11.8101 26.117C7.7861 26.9992 6.93698 24.3964 6.93698 24.3964C6.27901 22.7108 5.33097 22.2625 5.33097 22.2625C4.01862 21.3574 5.4299 21.376 5.4299 21.376C6.88237 21.4789 7.64717 22.8788 7.64717 22.8788C8.93725 25.1083 11.0309 24.4638 11.8563 24.0911C11.9862 23.1486 12.361 22.5052 12.7747 22.1411C9.56193 21.7723 6.18464 20.5219 6.18464 14.9339C6.18464 13.3418 6.74968 12.0408 7.67496 11.0196C7.52478 10.6523 7.02968 9.16901 7.81508 7.16027C7.81508 7.16027 9.02971 6.76832 11.7938 8.65511C12.9476 8.33199 14.185 8.16995 15.4142 8.1644C16.6435 8.16995 17.8818 8.33199 19.0378 8.65511C21.7985 6.76832 23.0115 7.16027 23.0115 7.16027C23.7988 9.16901 23.3035 10.6523 23.1533 11.0196C24.0807 12.0408 24.6419 13.3418 24.6419 14.9339C24.6419 20.5351 21.2582 21.7684 18.0373 22.1295C18.5561 22.582 19.0184 23.4695 19.0184 24.8301C19.0184 26.7814 19.0016 28.3518 19.0016 28.8321C19.0016 29.2202 19.262 29.6749 19.9951 29.5317C25.7392 27.6012 29.8784 22.1367 29.8784 15.6956C29.8784 7.64132 23.4024 1.1123 15.4142 1.1123Z" fill="white" stroke="white" stroke-width="1.5"/>
</svg>
