<svg width="30" height="30" viewBox="0 0 30 30" fill="none" xmlns="http://www.w3.org/2000/svg">
<mask id="mask0" mask-type="alpha" maskUnits="userSpaceOnUse" x="0" y="0" width="30" height="30">
<path fill-rule="evenodd" clip-rule="evenodd" d="M0.654155 14.6772C0.654155 6.68877 7.13004 0.212891 15.1184 0.212891C23.1068 0.212891 29.5827 6.68877 29.5827 14.6772C29.5827 22.6656 23.1068 29.1415 15.1184 29.1415C7.13004 29.1415 0.654155 22.6656 0.654155 14.6772Z" fill="white"/>
</mask>
<g mask="url(#mask0)">
<path fill-rule="evenodd" clip-rule="evenodd" d="M0.654155 14.6772C0.654155 6.68877 7.13004 0.212891 15.1184 0.212891C23.1068 0.212891 29.5827 6.68877 29.5827 14.6772C29.5827 22.6656 23.1068 29.1415 15.1184 29.1415C7.13004 29.1415 0.654155 22.6656 0.654155 14.6772Z" fill="white" stroke="white" stroke-width="3"/>
<path fill-rule="evenodd" clip-rule="evenodd" d="M15.1192 6.96289C13.0241 6.96289 12.7611 6.97205 11.9383 7.0095C11.117 7.04711 10.5564 7.17712 10.0659 7.36789C9.55855 7.56493 9.12815 7.82851 8.69936 8.25746C8.27025 8.68625 8.00667 9.11665 7.80899 9.62386C7.61774 10.1145 7.48756 10.6753 7.4506 11.4962C7.41379 12.3191 7.40415 12.5822 7.40415 14.6773C7.40415 16.7723 7.41347 17.0345 7.45076 17.8573C7.48853 18.6786 7.61855 19.2392 7.80915 19.7297C8.00635 20.2371 8.26993 20.6675 8.69888 21.0963C9.12751 21.5254 9.5579 21.7896 10.065 21.9866C10.5558 22.1774 11.1165 22.3074 11.9376 22.345C12.7605 22.3825 13.0233 22.3916 15.1182 22.3916C17.2134 22.3916 17.4756 22.3825 18.2984 22.345C19.1197 22.3074 19.6809 22.1774 20.1717 21.9866C20.679 21.7896 21.1087 21.5254 21.5373 21.0963C21.9665 20.6675 22.23 20.2371 22.4277 19.7298C22.6174 19.2392 22.7475 18.6784 22.7861 17.8575C22.8231 17.0346 22.8327 16.7723 22.8327 14.6773C22.8327 12.5822 22.8231 12.3192 22.7861 11.4964C22.7475 10.6751 22.6174 10.1145 22.4277 9.62403C22.23 9.11665 21.9665 8.68625 21.5373 8.25746C21.1082 7.82835 20.6791 7.56477 20.1713 7.36789C19.6795 7.17712 19.1186 7.04711 18.2973 7.0095C17.4745 6.97205 17.2125 6.96289 15.1167 6.96289L15.1192 6.96289ZM14.4271 8.35154C14.6325 8.35122 14.8617 8.35154 15.1192 8.35154C17.1789 8.35154 17.4231 8.35893 18.2364 8.3959C18.9886 8.43029 19.3968 8.55597 19.6687 8.66156C20.0287 8.80138 20.2854 8.96853 20.5552 9.23853C20.8253 9.50853 20.9924 9.76568 21.1325 10.1257C21.2381 10.3973 21.364 10.8055 21.3982 11.5577C21.4352 12.3709 21.4432 12.6152 21.4432 14.6739C21.4432 16.7327 21.4352 16.977 21.3982 17.7902C21.3638 18.5424 21.2381 18.9506 21.1325 19.2222C20.9927 19.5822 20.8253 19.8386 20.5552 20.1084C20.2852 20.3784 20.0289 20.5455 19.6687 20.6854C19.3971 20.7914 18.9886 20.9168 18.2364 20.9512C17.4232 20.9882 17.1789 20.9962 15.1192 20.9962C13.0593 20.9962 12.8152 20.9882 12.0019 20.9512C11.2498 20.9165 10.8416 20.7908 10.5695 20.6852C10.2095 20.5454 9.95233 20.3782 9.68233 20.1082C9.41233 19.8382 9.24518 19.5817 9.10504 19.2216C8.99945 18.95 8.87361 18.5417 8.83938 17.7896C8.80241 16.9764 8.79502 16.7321 8.79502 14.672C8.79502 12.612 8.80241 12.369 8.83938 11.5557C8.87377 10.8036 8.99945 10.3954 9.10504 10.1234C9.24486 9.76343 9.41233 9.50628 9.68233 9.23628C9.95233 8.96628 10.2095 8.79913 10.5695 8.65899C10.8414 8.55292 11.2498 8.42756 12.0019 8.393C12.7136 8.36086 12.9894 8.35122 14.4271 8.34961L14.4271 8.35154ZM19.237 9.63313C18.7259 9.63313 18.3113 10.0473 18.3113 10.5585C18.3113 11.0696 18.7259 11.4843 19.237 11.4843C19.7481 11.4843 20.1627 11.0696 20.1627 10.5585C20.1627 10.0475 19.7481 9.63281 19.237 9.63281L19.237 9.63313ZM15.1192 10.7148C12.9314 10.7148 11.1576 12.4887 11.1576 14.6765C11.1576 16.8643 12.9314 18.6373 15.1192 18.6373C17.307 18.6373 19.0802 16.8643 19.0802 14.6765C19.0802 12.4887 17.3069 10.7148 15.1191 10.7148L15.1192 10.7148ZM15.1192 12.1055C16.5392 12.1055 17.6906 13.2567 17.6906 14.6769C17.6906 16.097 16.5392 17.2484 15.1192 17.2484C13.6989 17.2484 12.5477 16.097 12.5477 14.6769C12.5477 13.2567 13.6989 12.1055 15.1192 12.1055V12.1055Z" fill="#96031A"/>
</g>
</svg>
