<svg width="32" height="16" viewBox="0 0 32 16" fill="none" xmlns="http://www.w3.org/2000/svg">
<path d="M25.7252 16C25.5861 16 25.4471 15.9333 25.308 15.8665C25.0299 15.6663 24.9604 15.1991 25.169 14.9322L30.453 7.99147L25.169 1.05074C24.9604 0.783791 25.0299 0.31663 25.308 0.116417C25.5861 -0.0837962 26.0728 -0.0170707 26.2814 0.24988L31.8436 7.59104C32.0521 7.85799 32.0521 8.12495 31.8436 8.3919L26.2814 15.7331C26.1423 15.9333 25.9338 16 25.7252 16Z" fill="white"/>
<path d="M31.2872 8.65995H0.695272C0.278109 8.65995 0 8.393 0 7.99257C0 7.59215 0.278109 7.3252 0.695272 7.3252H31.2872C31.7044 7.3252 31.9825 7.59215 31.9825 7.99257C31.9825 8.393 31.7044 8.65995 31.2872 8.65995Z" fill="white"/>
</svg>
