<svg width="30" height="30" viewBox="0 0 30 30" fill="none" xmlns="http://www.w3.org/2000/svg">
<path fill-rule="evenodd" clip-rule="evenodd" d="M0.565532 14.8198C0.565532 6.83135 7.04141 0.355469 15.0298 0.355469C23.0182 0.355469 29.4941 6.83135 29.4941 14.8198C29.4941 22.8082 23.0182 29.284 15.0298 29.284C7.04141 29.284 0.565532 22.8082 0.565532 14.8198Z" fill="white"/>
<path fill-rule="evenodd" clip-rule="evenodd" d="M15.7865 19.5678C15.7865 19.5678 16.0649 19.5374 16.2075 19.387C16.3381 19.2492 16.3336 18.9892 16.3336 18.9892C16.3336 18.9892 16.3162 17.7752 16.8905 17.5959C17.4564 17.4197 18.1831 18.77 18.9543 19.2892C19.5369 19.6818 19.9791 19.5959 19.9791 19.5959L22.0399 19.5678C22.0399 19.5678 23.1175 19.5026 22.6066 18.6707C22.5644 18.6026 22.3086 18.0552 21.0748 16.9308C19.7821 15.7538 19.9557 15.9441 21.5117 13.9079C22.4595 12.6679 22.8383 11.9109 22.7198 11.5872C22.6074 11.2776 21.9101 11.3598 21.9101 11.3598L19.5905 11.3739C19.5905 11.3739 19.4184 11.3509 19.2909 11.4257C19.1664 11.499 19.0856 11.6701 19.0856 11.6701C19.0856 11.6701 18.7189 12.6294 18.2291 13.4457C17.1961 15.1671 16.7833 15.2582 16.6143 15.1516C16.2211 14.9019 16.3192 14.1501 16.3192 13.616C16.3192 11.9472 16.5773 11.2516 15.8174 11.0716C15.5654 11.0116 15.3797 10.9724 14.7345 10.9657C13.9067 10.9576 13.2064 10.9687 12.8095 11.159C12.5454 11.2857 12.3417 11.5687 12.4662 11.585C12.6194 11.605 12.9665 11.6768 13.1506 11.9227C13.3883 12.2405 13.38 12.9531 13.38 12.9531C13.38 12.9531 13.5166 14.9175 13.0608 15.1612C12.7484 15.3286 12.3198 14.9871 11.3984 13.4249C10.9268 12.6249 10.5706 11.7405 10.5706 11.7405C10.5706 11.7405 10.5019 11.5753 10.3789 11.4864C10.2302 11.379 10.0227 11.3457 10.0227 11.3457L7.81851 11.3598C7.81851 11.3598 7.48723 11.3687 7.36574 11.5102C7.25783 11.6353 7.35744 11.8953 7.35744 11.8953C7.35744 11.8953 9.08324 15.8589 11.0377 17.8567C12.8299 19.6878 14.8643 19.5678 14.8643 19.5678L15.7865 19.5678Z" fill="#96031A"/>
</svg>
